<?xml version="1.0" standalone="no"?>
<!DOCTYPE svg PUBLIC "-//W3C//DTD SVG 20010904//EN"
 "http://www.w3.org/TR/2001/REC-SVG-20010904/DTD/svg10.dtd">
<svg version="1.0" xmlns="http://www.w3.org/2000/svg"
 width="512.000000pt" height="512.000000pt" viewBox="0 0 512.000000 512.000000"
 preserveAspectRatio="xMidYMid meet">
<metadata>
Created by potrace 1.11, written by Peter Selinger 2001-2013
</metadata>
<g transform="translate(0.000000,512.000000) scale(0.100000,-0.100000)"
fill="#000000" stroke="none">
<path d="M961 5104 c-170 -45 -308 -187 -348 -354 -10 -44 -13 -479 -13 -2181
0 -1380 3 -2145 10 -2180 5 -30 26 -85 45 -124 53 -109 141 -188 264 -237 l56
-23 1748 -3 1748 -2 24 24 25 25 0 2511 0 2511 -25 25 -24 24 -1728 -1 c-1472
0 -1736 -3 -1782 -15z"/>
</g>
</svg>
